<?xml version="1.0" encoding="utf-8"?>
<!-- Generator: Adobe Illustrator 27.0.0, SVG Export Plug-In . SVG Version: 6.00 Build 0)  -->
<svg version="1.1"
	 id="svg2" xmlns:cc="http://creativecommons.org/ns#" xmlns:sodipodi="http://sodipodi.sourceforge.net/DTD/sodipodi-0.dtd" xmlns:inkscape="http://www.inkscape.org/namespaces/inkscape" xmlns:svg="http://www.w3.org/2000/svg" xmlns:rdf="http://www.w3.org/1999/02/22-rdf-syntax-ns#" xmlns:dc="http://purl.org/dc/elements/1.1/" inkscape:export-filename="G:\Users\suitedoalex\sites\galax-logo-0.png" inkscape:export-xdpi="96" inkscape:export-ydpi="96"
	 xmlns="http://www.w3.org/2000/svg" xmlns:xlink="http://www.w3.org/1999/xlink" x="0px" y="0px" viewBox="0 0 4096 4096"
	 style="enable-background:new 0 0 4096 4096;" xml:space="preserve">
<style type="text/css">
	.st0{fill:#FFFFFF;}
	.st1{fill:#0D0B09;}
</style>
<rect x="0" y="0" class="st0" width="4096" height="4096"/>
<path id="path52" inkscape:connector-curvature="0" class="st1" d="M3583.9,2279.3l-227.4-236.1l223.3-226.7
	c7.4-7.6,4.8-13.7-5.7-13.7H3516c-10.6,0-25.3,6.2-32.6,13.9l-172.5,179.2l-171.1-177.7c-7.4-7.6-22-13.9-32.6-13.9H3049
	c-10.6,0-13.2,6.2-5.8,13.7l221.9,225.3l-225.9,234.7c-7.4,7.6-4.7,13.9,5.9,13.9h47.2c10.6,0,25.4-6.2,32.8-13.7l185.7-188.5
	l187.1,190c7.4,7.5,22.2,13.7,32.8,13.7h47.2C3588.6,2293.2,3591.2,2287,3583.9,2279.3 M2767.1,1902.8c-4.7-9.5-12.7-24.9-17.6-34.3
	c0,0-4.7-8.9-10.2-18.6c-5.6-9.7-10.5-16.9-14.9-21.8c-12.1-13.6-27.9-21.5-47.2-24c-19.4,2.4-35.1,10.7-47.2,24.7
	c-9.2,10.7-20.6,29.6-34.2,56.7L2400.3,2276c-4.7,9.5,0,17.2,10.6,17.2h42.1c10.6,0,23.2-7.7,28-17.2l167.9-332.5
	c4.8-9.5,13.3-24.6,18.9-33.6c0,0,4.3-6.9,10.1-6.9c5.3,0,11.9,7.8,19.6,23.3L2872,2276c4.7,9.5,17.3,17.2,27.9,17.2h42.9
	c10.6,0,15.4-7.8,10.7-17.2L2767.1,1902.8z M2308.4,2210.4h-368.7c-67.8,0-101.7-27.1-101.7-81.4v-307c0-10.6-8.7-19.3-19.3-19.3
	h-42.8c-10.6,0-19.3,8.7-19.3,19.3v348.4c0,81.4,47.7,122.1,143.2,122.1h408.7c10.6,0,19.3-8.7,19.3-19.3v-43.6
	C2327.7,2219.1,2319,2210.4,2308.4,2210.4 M1059.1,1802.8H792.8c-189.9,0-284.8,81.4-284.8,244.1c0,163.7,94.5,245.6,283.4,245.6
	h267.7c10.6,0,19.3-8.7,19.3-19.3v-245.6c0-10.6-8.7-19.3-19.3-19.3h-42.8c-10.6,0-19.3,8.7-19.3,19.3v163.5
	c0,10.6-8.7,19.3-19.3,19.3l-184.9,0.7c-136.1,0-204.2-54.5-204.2-163.5c0-108.5,68.1-162.8,204.2-162.8h266.3
	c10.6,0,19.3-8.7,19.3-19.3V1822C1078.4,1811.5,1069.7,1802.8,1059.1,1802.8 M1517.8,1902.8c-4.7-9.5-12.6-24.9-17.6-34.3
	c0,0-4.7-8.9-10.3-18.6c-5.6-9.7-10.5-16.9-14.9-21.8c-12.1-13.6-27.9-21.5-47.2-24c-19.4,2.4-35.1,10.7-47.2,24.7
	c-9.2,10.7-20.6,29.6-34.2,56.7L1150.9,2276c-4.8,9.5,0,17.2,10.6,17.2h42.1c10.6,0,23.2-7.7,28-17.2l167.9-332.5
	c4.8-9.5,13.3-24.6,18.9-33.6c0,0,4.3-6.9,10.1-6.9c5.3,0,11.9,7.8,19.6,23.3l174.5,349.7c4.7,9.5,17.3,17.2,27.9,17.2h42.8
	c10.6,0,15.4-7.8,10.7-17.2L1517.8,1902.8z"/>
</svg>
