<?xml version="1.0" encoding="UTF-8"?>
<svg id="svg2" xmlns="http://www.w3.org/2000/svg" viewBox="0 0 3080.04 490.45">
  <defs>
    <style>
      .cls-1 {
        fill: #fff;
      }
    </style>
  </defs>
  <path id="path52" class="cls-1" d="M3075.88,476.57l-227.35-236.13L3071.87,13.72c7.44-7.56,4.85-13.72-5.74-13.72h-58.11c-10.59,0-25.28,6.25-32.63,13.88l-172.5,179.16L2631.8,15.34c-7.35-7.63-22.04-13.88-32.64-13.88h-58.09c-10.61,0-13.19,6.18-5.75,13.72l221.92,225.27-225.93,234.66c-7.35,7.63-4.69,13.88,5.9,13.88h47.19c10.6,0,25.36-6.18,32.79-13.72l185.7-188.5,187.12,189.95c7.44,7.55,22.21,13.72,32.8,13.72h47.19c10.6,0,13.25-6.25,5.9-13.88M2259.17,100.07c-4.74-9.48-12.66-24.9-17.61-34.27,0,0-4.68-8.88-10.24-18.57-5.57-9.68-10.55-16.95-14.9-21.8-12.11-13.56-27.86-21.55-47.23-23.98-19.39,2.43-35.13,10.66-47.23,24.71-9.21,10.66-20.6,29.55-34.15,56.67l-195.53,390.39c-4.75,9.47,.03,17.23,10.63,17.23h42.1c10.6,0,23.18-7.74,27.96-17.19l167.91-332.53c4.77-9.47,13.28-24.56,18.9-33.55,0,0,4.32-6.91,10.13-6.91,5.32,0,11.86,7.76,19.61,23.25l174.5,349.69c4.72,9.48,17.27,17.24,27.86,17.24h42.85c10.59,0,15.39-7.76,10.67-17.24l-186.24-373.14Zm-458.73,307.55h-368.73c-67.82,0-101.73-27.12-101.73-81.38V19.27C1329.98,8.68,1321.31,0,1310.71,0h-42.84c-10.59,0-19.27,8.68-19.27,19.27V367.65c0,81.37,47.71,122.07,143.16,122.07h408.67c10.61,0,19.28-8.66,19.28-19.27v-43.57c0-10.6-8.66-19.27-19.28-19.27M551.1,0H284.82C94.94,0,0,81.37,0,244.13s94.46,245.59,283.37,245.59h267.73c10.6,0,19.28-8.66,19.28-19.27V224.9c0-10.6-8.68-19.28-19.28-19.28h-42.83c-10.6,0-19.28,8.68-19.28,19.28v163.45c0,10.59-8.66,19.3-19.27,19.33l-184.9,.66c-136.12,0-204.18-54.5-204.18-163.48S148.71,82.11,284.83,82.11h266.28c10.6,0,19.28-8.68,19.28-19.28V19.27C570.38,8.68,561.7,0,551.1,0m458.73,100.07c-4.72-9.48-12.65-24.9-17.61-34.27,0,0-4.68-8.88-10.25-18.57-5.57-9.68-10.52-16.95-14.89-21.8-12.11-13.56-27.85-21.55-47.23-23.98-19.38,2.43-35.12,10.66-47.22,24.71-9.22,10.66-20.6,29.55-34.15,56.67l-195.54,390.39c-4.76,9.47,.03,17.23,10.63,17.23h42.11c10.59,0,23.17-7.74,27.95-17.19l167.91-332.53c4.78-9.47,13.28-24.56,18.89-33.55,0,0,4.33-6.91,10.14-6.91,5.32,0,11.86,7.76,19.62,23.25l174.5,349.69c4.72,9.48,17.27,17.24,27.86,17.24h42.84c10.59,0,15.39-7.76,10.66-17.24L1009.83,100.07Z"/>
</svg>